<?xml version="1.0" encoding="UTF-8"?> <!-- Generator: Adobe Illustrator 20.1.0, SVG Export Plug-In . SVG Version: 6.00 Build 0) --> <svg xmlns="http://www.w3.org/2000/svg" xmlns:xlink="http://www.w3.org/1999/xlink" id="Layer_2" x="0px" y="0px" viewBox="0 0 567.6 522.3" style="enable-background:new 0 0 567.6 522.3;" xml:space="preserve"> <style type="text/css"> .st0{fill:#003F77;} .st1{fill:#003066;} .st2{fill:#77BF42;} .st3{fill:#00538C;} .st4{fill:#FFFFFF;} .st5{fill:none;stroke:#FFFFFF;stroke-width:1.8872;stroke-miterlimit:22.9256;} .st6{enable-background:new ;} </style> <g id="blue"> <path class="st0" d="M567.5,317.6c-94.2,15.7-188.9,23.5-283.8,23.5S94.1,333.2,0,317.6c10.5-17.5,20.9-35.2,31.5-53 c-10.6-20.9-21-42-31.5-63c94.2,15.7,188.9,23.5,283.8,23.5s189.6-7.8,283.8-23.5c-10.5,21.1-20.9,42.1-31.5,62.9 C546.6,282.3,557,299.9,567.5,317.6z"></path> <path class="st1" d="M512.6,284.9c-152.1,20.3-305.6,20.3-457.7,0c15.8,15.8,31.5,31.2,47.3,46.5c120.8,12.9,242.4,12.9,363.3,0 C481.1,316.2,496.9,300.6,512.6,284.9z"></path> <polygon class="st1" points="121,68.2 121,454.2 283.7,499.5 446.4,454.2 446.4,68.2 283.7,22.7 "></polygon> <path class="st2" d="M113.7,459.7V62.6l170-47.4l170,47.4v397.1l-170,47.4L113.7,459.7L113.7,459.7z M283.7,0L283.7,0L99.1,51.5 v234.7v184.6l184.6,51.5l184.6-51.5V51.5L283.7,0z"></path> <path class="st3" d="M512.6,285.6c-152.1,20.3-305.7,22.7-457.8,2.3v-116c152.1,20.3,305.7,18,457.8-2.3V285.6z"></path> </g> <path id="top_10" class="st4" d="M130.9,280.8c7,0.6,14,1.2,21.1,1.8c0-10.6,0-21.1,0-31.7c0-10.6,0-21.1,0-31.7 c6.5,0.5,13,0.9,19.5,1.4c0-5.2,0-10.4,0-15.6c-20-1.4-40-3.1-60-5.1c0,5.2,0,10.4,0,15.6c6.5,0.7,13,1.3,19.4,1.9 c0,10.6,0,21.1,0,31.7C130.9,259.6,130.9,270.2,130.9,280.8L130.9,280.8z M167.3,244.1c0-12.7,3.4-22.6,10-29.3s16.5-10,29.6-9.5 c13,0.5,22.9,4.6,29.5,11.8s10.1,17.5,10.1,30.1s-3.5,22.7-10.1,29.6s-16.6,10.6-29.5,10.1s-22.8-5-29.5-12.4 C170.8,267.2,167.3,256.7,167.3,244.1L167.3,244.1z M189,245.4c0,6.5,1.3,12.9,4.1,17.7c2.9,4.8,7.3,8.1,13.8,8.4 c6.4,0.3,10.9-2.7,13.7-7.3c2.9-4.6,4.2-10.9,4.2-17.4c0-6.8-1.3-13.2-4.2-17.9s-7.3-7.7-13.7-8s-10.9,2.4-13.8,6.9 C190.3,232.3,189,238.6,189,245.4L189,245.4z M247.2,286.8c7,0.1,14,0.2,21,0.3c0-4.6,0-9.2,0-13.8c0-4.6,0-9.2,0-13.8 c2.7,0,5.4,0,8.2,0c9.8,0,17.7-2.4,23-6.8c5.3-4.4,8.3-10.8,8.3-18.8c0-8.9-2.9-15.3-8.7-19.5c-5.8-4.2-14.7-6.2-26.7-6.3 c-8.4,0-16.8-0.2-25.1-0.3c0,13.2,0,26.3,0,39.5C247.2,260.5,247.2,273.6,247.2,286.8L247.2,286.8z M268.3,223c1.8,0,3.6,0,5.4,0 c7.2,0,13,2.6,13,10.6c0,8.3-5.8,10.9-13,10.9c-1.8,0-3.7,0-5.4,0c0-3.6,0-7.2,0-10.7C268.3,230.2,268.3,226.6,268.3,223L268.3,223z M366.5,285.5c7-0.3,14-0.7,21-1c0-13.2,0-26.3,0-39.5c0-13.2,0-26.3,0-39.5c-6.2,0.3-12.4,0.6-18.5,0.9c-9,6.2-17.9,12.3-26.8,18.4 c3.1,4.7,6.2,9.3,9.4,14c5-3.7,10-7.5,15-11.2c0,9.7,0,19.3,0,29C366.5,266.1,366.5,275.8,366.5,285.5L366.5,285.5z M424,283.1 c13.1-1.1,20.7-7,25.1-15.1s5.6-18.4,5.6-28.7c0-10.2-1.2-20.3-5.6-27.5S437,200.3,424,201.4c-13.1,1.1-20.8,6.7-25.2,14.6 c-4.4,7.9-5.5,18.2-5.5,28.4s1.1,20.4,5.5,27.8C403.3,279.6,410.9,284.2,424,283.1L424,283.1z M424,268.9c-4.8,0.4-7.3-2.9-8.7-7.9 c-1.4-5-1.6-11.6-1.6-17.9c0-6.3,0.2-12.9,1.6-18.1c1.4-5.2,4-8.9,8.7-9.3c4.8-0.4,7.3,2.9,8.7,7.8c1.4,4.9,1.6,11.6,1.6,17.9 c0,6.3-0.2,13-1.6,18.2C431.4,264.7,428.8,268.5,424,268.9z"></path> <g> <path class="st4" d="M205.3,390.9c0-0.4,0-0.9,0.1-1.3c0-0.7,0.1-1.5,0.1-2.2c0.1-1.9,0.1-3.7,0.1-5.6c0-1.2,0-2.3,0-3.5 c0-1.5-0.1-3-0.1-4.4c-0.3-5.4-0.8-10.5-1.5-15.1l0,0c-1.9-12.3-5.4-21.3-9.5-24c-0.8-0.5-1.7-0.8-2.5-0.8 c-4.9,0-9.2,9.1-11.6,22.7c-13-4.7-23.1-5.6-25.5-1.3c-0.4,0.7-0.6,1.6-0.6,2.6c0.3,6,9.5,16,23.4,25.7c2.8,2,5.9,3.9,9,5.9 c0.9,0.5,1.8,1.1,2.7,1.6c1.7,1,3.4,1.9,5.1,2.8c1,0.5,2,1,3,1.5c0.2,0.1,0.4,0.2,0.6,0.3c1.4,0.7,2.8,1.4,4.2,2 c0.8,0.4,1.6,0.7,2.4,1.1c1.6,0.7,3.2,1.4,4.8,2c11.9,4.7,21.8,6.3,26.2,4.1c0.9-0.4,1.5-1,2-1.8c2.7-4.7-4.6-14.4-17.5-24.4 c9.3,7.4,14.6,14.1,12.7,17.2c-0.2,0.4-0.5,0.7-0.9,0.9c-0.4,0.3-0.9,0.5-1.5,0.6c-3.8,0.9-11.2-0.8-20.2-4.5 C208.6,392.4,206.9,391.7,205.3,390.9 M210.5,383.9c15.7-11.1,25.1-22.5,22-27.7c-2.4-4.1-11.7-3.5-24,0.8v0.1 c8.1-2.6,13.9-2.9,15.4-0.3c1.9,3.2-3.7,10.3-13.6,17.9c0.1,2.3,0.1,4.7,0.1,7.1C210.5,382.5,210.5,383.2,210.5,383.9z M187.7,396 c-0.3-0.2-0.6-0.4-1-0.5c-1.5-0.9-3-1.8-4.5-2.7c-0.3-0.2-0.7-0.4-1-0.6c-13.7,6.2-24.7,8.4-26.8,4.8c-1.7-3,2.9-9.1,11.2-16l0,0 c-11.9,9.6-18.6,18.6-16,23.2c3.3,5.7,20,2.3,39.3-7.3C188.6,396.5,188.2,396.3,187.7,396z M194.4,428.8c4.2-2.7,7.7-12,9.6-24.7 c-0.8-0.3-1.6-0.7-2.4-1.1c-1.5-0.7-3.1-1.4-4.7-2.2c-1.3,9.7-3.5,16.9-6.2,19.8c-0.4,0.4-0.8,0.8-1.3,1c-0.4,0.2-0.8,0.3-1.3,0.3 c-3.6,0-6.8-7.9-8.5-19.7c2.2,16.2,6.9,27.3,12.4,27.3C192.7,429.6,193.5,429.3,194.4,428.8z M197.3,367.5 c-1.5-0.5-3.1-0.8-4.8-0.8c-6,0-11.2,3.5-13.6,8.7c-8.7-6.4-14.6-12.6-15.8-16.6c-0.2-0.6-0.2-1.1-0.2-1.6s0.1-0.9,0.4-1.3 c1.6-2.7,8.1-2.2,16.9,0.8c0,0,0,0,0.1,0c1.4,0.5,2.8,1,4.3,1.6c-1.5-0.6-2.9-1.1-4.3-1.7c1.8-9.2,4.6-15.1,7.8-15.1 c0.4,0,0.8,0.1,1.3,0.3c0.4,0.2,0.8,0.5,1.3,1C193.7,346.2,196.2,355.4,197.3,367.5z"></path> <polygon class="st4" points="253.6,378 250.4,378 250.4,350.7 265.6,350.7 265.6,353.6 253.6,353.6 253.6,363.5 264.8,363.5 264.8,366.3 253.6,366.3 "></polygon> <rect x="268.3" y="350.7" class="st4" width="3.2" height="27.2"></rect> <path class="st4" d="M297.6,378H294l-14.9-22.8H279c0.2,2.7,0.3,5.1,0.3,7.4V378h-2.9v-27.2h3.6l14.8,22.8h0.1 c0-0.3-0.1-1.4-0.2-3.2c-0.1-1.8-0.1-3.1-0.1-3.9v-15.6h3L297.6,378L297.6,378z"></path> <path class="st4" d="M320.2,364.2c0-3.6-0.9-6.2-2.7-8c-1.8-1.8-4.4-2.7-7.9-2.7H305v21.7h3.9c3.8,0,6.6-0.9,8.5-2.8 C319.2,370.6,320.2,367.8,320.2,364.2 M323.5,364.1c0,4.5-1.2,7.9-3.7,10.3c-2.4,2.4-5.9,3.6-10.5,3.6h-7.5v-27.2h8.3 c4.2,0,7.5,1.2,9.9,3.5C322.4,356.6,323.5,359.9,323.5,364.1z"></path> <path class="st4" d="M340.9,365.1v10.2h5.7c2.2,0,3.9-0.4,5-1.3c1.1-0.8,1.7-2.2,1.7-4c0-1.7-0.6-2.9-1.7-3.7 c-1.1-0.8-2.9-1.2-5.2-1.2H340.9z M340.9,362.4h5.2c2.2,0,3.8-0.3,4.8-1.1c1-0.7,1.5-1.9,1.5-3.5c0-1.5-0.5-2.6-1.6-3.3 c-1.1-0.7-2.8-1-5.2-1h-4.7L340.9,362.4L340.9,362.4z M337.7,350.7h7.7c3.6,0,6.2,0.5,7.8,1.6c1.6,1.1,2.4,2.8,2.4,5.1 c0,1.6-0.4,2.9-1.3,4c-0.9,1-2.2,1.7-3.9,2v0.2c4.1,0.7,6.2,2.9,6.2,6.5c0,2.4-0.8,4.3-2.5,5.7c-1.6,1.4-3.9,2-6.9,2h-9.5 L337.7,350.7L337.7,350.7z"></path> <polygon class="st4" points="374.3,378 359.1,378 359.1,350.7 374.3,350.7 374.3,353.6 362.3,353.6 362.3,362.3 373.6,362.3 373.6,365.1 362.3,365.1 362.3,375.1 374.3,375.1 "></polygon> <path class="st4" d="M393.2,370.7c0,2.4-0.9,4.3-2.6,5.6c-1.7,1.3-4.1,2-7.1,2c-3.2,0-5.7-0.4-7.4-1.3v-3c1.1,0.5,2.3,0.8,3.6,1.1 c1.3,0.3,2.6,0.4,3.9,0.4c2.1,0,3.7-0.4,4.8-1.2c1.1-0.8,1.6-1.9,1.6-3.3c0-0.9-0.2-1.7-0.6-2.3c-0.4-0.6-1-1.2-1.9-1.7 s-2.2-1.1-4.1-1.7c-2.5-0.9-4.3-2-5.4-3.2s-1.6-2.9-1.6-4.9c0-2.1,0.8-3.8,2.4-5s3.7-1.9,6.3-1.9c2.7,0,5.2,0.5,7.5,1.5l-1,2.8 c-2.2-0.9-4.4-1.4-6.6-1.4c-1.7,0-3,0.4-3.9,1.1s-1.4,1.7-1.4,3c0,0.9,0.2,1.7,0.5,2.3c0.3,0.6,0.9,1.2,1.8,1.7 c0.8,0.5,2.1,1.1,3.8,1.7c2.9,1,4.8,2.1,5.9,3.3C392.6,367.4,393.2,368.9,393.2,370.7"></path> <polygon class="st4" points="405.3,378 402.2,378 402.2,353.6 393.5,353.6 393.5,350.7 413.9,350.7 413.9,353.6 405.3,353.6 "></polygon> <path class="st4" d="M281.1,418.4h-8.6l-2.6-11.8c-0.1-0.5-0.3-1.5-0.6-2.9c-0.3-1.5-0.5-2.7-0.6-3.7c-0.1,0.8-0.3,1.8-0.5,3 s-0.4,2.3-0.7,3.3c-0.2,1-1.1,5-2.7,12.1h-8.6l-6.7-27h7l2.9,13.5c0.7,3,1.1,5.4,1.4,7.1c0.2-1.3,0.4-3,0.9-5.1 c0.4-2.2,0.8-3.9,1.2-5.3l2.4-10.2h6.7l2.3,10.2c0.4,1.6,0.8,3.5,1.2,5.7c0.4,2.1,0.7,3.7,0.8,4.8c0.2-1.4,0.6-3.7,1.3-7.1l3-13.6 h7L281.1,418.4z"></path> <polygon class="st4" points="305.6,418.4 289.6,418.4 289.6,391.5 305.6,391.5 305.6,397.3 296.8,397.3 296.8,401.5 304.9,401.5 304.9,407.4 296.8,407.4 296.8,412.5 305.6,412.5 "></polygon> <path class="st4" d="M314.8,407.1v5.7h2.6c2.3,0,3.4-1,3.4-2.9c0-0.9-0.3-1.6-0.9-2.1s-1.5-0.7-2.6-0.7H314.8z M314.8,401.8h2.2 c1,0,1.9-0.2,2.4-0.6c0.6-0.4,0.9-1.1,0.9-1.9c0-1.5-1.1-2.3-3.4-2.3h-2.1V401.8z M307.5,391.5h9.4c3.7,0,6.4,0.5,8.2,1.6 c1.8,1.1,2.7,2.8,2.7,5.1c0,1.5-0.4,2.8-1.2,3.9c-0.8,1.1-1.8,1.8-3.1,2.1v0.2c1.7,0.4,2.9,1.2,3.6,2.2s1.1,2.4,1.1,4 c0,2.4-0.9,4.4-2.8,5.8c-1.8,1.4-4.3,2.1-7.5,2.1h-10.5L307.5,391.5L307.5,391.5z"></path> <path class="st4" d="M357.6,404.6c0-2.5-0.5-4.3-1.5-5.5s-2.5-1.8-4.5-1.8h-2.1v15.1h1.6c2.2,0,3.8-0.6,4.9-1.9 C357.1,409.2,357.6,407.3,357.6,404.6 M365.1,404.4c0,4.5-1.2,8-3.7,10.4s-6,3.7-10.4,3.7h-8.7v-27h9.3c4.3,0,7.7,1.1,10,3.3 C364,397,365.1,400.2,365.1,404.4z"></path> <polygon class="st4" points="382.8,418.4 366.8,418.4 366.8,391.5 382.8,391.5 382.8,397.3 374.1,397.3 374.1,401.5 382.2,401.5 382.2,407.4 374.1,407.4 374.1,412.5 382.8,412.5 "></polygon> <path class="st4" d="M401.1,391.5h8.2l-8.8,27h-8.6l-8.8-27h8.2l3.7,13.7c0.8,3,1.2,5.2,1.3,6.3c0.1-0.9,0.3-1.9,0.5-3.2 c0.3-1.3,0.5-2.3,0.7-3L401.1,391.5z"></path> <line class="st5" x1="246.1" y1="384.1" x2="418.3" y2="384.1"></line> </g> <g id="Cat"> <g id="eCommerce"> <g class="st6"> <path class="st4" d="M147.8,118.5h9.4c9.4,0,17,5.8,17,15.7c0,10.7-6.5,16.2-17,16.2h-9.4V118.5z M152.3,146.3h4.8 c7.9,0,12.2-3.8,12.2-12c0-7.4-5.1-11.8-11.6-11.8h-5.3V146.3z"></path> <path class="st4" d="M197.5,149.4c-1.6,0.6-3.5,1.5-7.3,1.5c-8.3,0-12-5-12-12.6c0-6.9,4.3-11.8,10.9-11.8 c7.8,0,10.3,5.7,10.3,13.1h-16.6c0,4.6,3.6,7.8,7.7,7.8c2.8,0,6.1-1.5,7.2-2.3V149.4z M194.7,136.5c0-3.6-2.1-6.5-5.8-6.5 c-4.2,0-5.9,3.5-6.3,6.5H194.7z"></path> <path class="st4" d="M214.4,150.3h-5.1l-8.4-23.3h4.7l6.3,19h0.1l6.4-19h4.3L214.4,150.3z"></path> <path class="st4" d="M243.8,149.4c-1.6,0.6-3.5,1.5-7.3,1.5c-8.3,0-12-5-12-12.6c0-6.9,4.3-11.8,10.9-11.8 c7.8,0,10.3,5.7,10.3,13.1h-16.6c0,4.6,3.6,7.8,7.7,7.8c2.8,0,6.1-1.5,7.2-2.3V149.4z M241,136.5c0-3.6-2.1-6.5-5.8-6.5 c-4.2,0-5.9,3.5-6.3,6.5H241z"></path> <path class="st4" d="M250.9,116.1h4.3v34.2h-4.3V116.1z"></path> <path class="st4" d="M272.4,126.5c7.1,0,11.8,5.1,11.8,12.2c0,6.7-4.8,12.2-11.8,12.2c-7,0-11.9-5.5-11.9-12.2 C260.5,131.6,265.3,126.5,272.4,126.5z M272.4,147.4c5,0,7.3-4.6,7.3-8.7c0-4.4-2.7-8.7-7.3-8.7c-4.6,0-7.3,4.3-7.3,8.7 C265.1,142.9,267.3,147.4,272.4,147.4z"></path> <path class="st4" d="M289,127.1h4.1v3.3h0.1c1.1-1.7,3.8-3.8,7.9-3.8c6.8,0,10,5.5,10,11.8c0,6.4-3,12.6-10,12.6 c-4.1,0-6.4-1.6-7.8-3.7h-0.1v12.8H289V127.1z M300.2,130c-4.7,0-6.9,4.4-6.9,8.8c0,3.9,2,8.7,6.8,8.7c4.6,0,6.5-5.2,6.4-8.8 C306.7,134.4,304.8,130,300.2,130z"></path> <path class="st4" d="M315.9,127.1h4v3.4h0.1c1.6-2.7,4-3.9,7.4-3.9c2.7,0,5.4,1.4,6.6,4.5c1.6-3.3,5.1-4.5,7.2-4.5 c5.9,0,8.1,3.8,8.1,8.9v14.9H345v-13.9c0-2.9-0.7-6.5-4.2-6.5c-4.4,0-6.1,4.3-6.1,8.6v11.7h-4.3v-13.9c0-2.9-0.7-6.5-4.2-6.5 c-4.4,0-6.1,4.3-6.1,8.6v11.7h-4.3V127.1z"></path> <path class="st4" d="M373.4,149.4c-1.6,0.6-3.5,1.5-7.3,1.5c-8.3,0-12-5-12-12.6c0-6.9,4.3-11.8,10.9-11.8 c7.8,0,10.3,5.7,10.3,13.1h-16.6c0,4.6,3.6,7.8,7.7,7.8c2.8,0,6.1-1.5,7.2-2.3V149.4z M370.6,136.5c0-3.6-2.1-6.5-5.8-6.5 c-4.2,0-5.9,3.5-6.3,6.5H370.6z"></path> <path class="st4" d="M380,127.1h4.2v3.7h0.1c1.3-2.6,4.4-4.2,7.6-4.2c6,0,8.7,3.7,8.7,10v13.8h-4.3v-12c0-5.4-1.2-8.1-4.9-8.3 c-4.9,0-7.1,3.9-7.1,9.6v10.8H380V127.1z"></path> <path class="st4" d="M419.3,130.5h-6.2v12.7c0,2.7,1.6,4.2,3.6,4.2c1.3,0,2.3-0.4,2.9-0.8v3.7c-1,0.3-2.3,0.6-3.7,0.6 c-4.4,0-7.2-2.1-7.2-6.8v-13.6h-5.2v-3.5h5.2v-5.4l4.3-1.4v6.8h6.2V130.5z"></path> </g> <g class="st6"> <path class="st4" d="M181.5,110.8c-1.6,0.6-3.5,1.5-7.3,1.5c-8.3,0-12-5-12-12.6c0-6.9,4.3-11.8,10.9-11.8 c7.8,0,10.3,5.7,10.3,13.1h-16.6c0,4.6,3.6,7.8,7.7,7.8c2.8,0,6.1-1.5,7.2-2.3V110.8z M178.8,97.9c0-3.6-2.1-6.5-5.8-6.5 c-4.2,0-5.9,3.5-6.3,6.5H178.8z"></path> <path class="st4" d="M210.5,85.2c-2-1.2-4.2-1.8-6.6-1.8c-7.3,0-12.2,5.3-12.2,12.5c0,7.5,5.4,12.5,12,12.5 c2.3,0,5.3-0.6,6.9-1.6l0.3,4.4c-2.4,1-5.4,1.1-7.3,1.1c-10.1,0-16.8-6.5-16.8-16.6c0-9.8,7.1-16.3,16.8-16.3 c2.5,0,4.9,0.4,7.2,1.4L210.5,85.2z"></path> <path class="st4" d="M225.4,88c7.1,0,11.8,5.1,11.8,12.2c0,6.7-4.8,12.2-11.8,12.2c-7,0-11.9-5.5-11.9-12.2 C213.5,93.1,218.2,88,225.4,88z M225.4,108.9c5,0,7.3-4.6,7.3-8.7c0-4.4-2.7-8.7-7.3-8.7c-4.6,0-7.3,4.3-7.3,8.7 C218.1,104.3,220.3,108.9,225.4,108.9z"></path> <path class="st4" d="M241.9,88.5h4v3.4h0.1c1.6-2.7,4-3.9,7.4-3.9c2.7,0,5.4,1.4,6.6,4.5c1.6-3.3,5.1-4.5,7.2-4.5 c5.9,0,8.1,3.8,8.1,8.9v14.9H271V97.9c0-2.9-0.7-6.5-4.2-6.5c-4.4,0-6.1,4.3-6.1,8.6v11.7h-4.3V97.9c0-2.9-0.7-6.5-4.2-6.5 c-4.4,0-6.1,4.3-6.1,8.6v11.7h-4.3V88.5z"></path> <path class="st4" d="M281.5,88.5h4v3.4h0.1c1.6-2.7,4-3.9,7.4-3.9c2.7,0,5.4,1.4,6.6,4.5c1.6-3.3,5.1-4.5,7.2-4.5 c5.9,0,8.1,3.8,8.1,8.9v14.9h-4.3V97.9c0-2.9-0.7-6.5-4.2-6.5c-4.4,0-6.1,4.3-6.1,8.6v11.7h-4.3V97.9c0-2.9-0.7-6.5-4.2-6.5 c-4.4,0-6.1,4.3-6.1,8.6v11.7h-4.3V88.5z"></path> <path class="st4" d="M339.1,110.8c-1.6,0.6-3.5,1.5-7.3,1.5c-8.3,0-12-5-12-12.6c0-6.9,4.3-11.8,10.9-11.8 c7.8,0,10.3,5.7,10.3,13.1h-16.6c0,4.6,3.6,7.8,7.7,7.8c2.8,0,6.1-1.5,7.2-2.3V110.8z M336.3,97.9c0-3.6-2.1-6.5-5.8-6.5 c-4.2,0-5.9,3.5-6.3,6.5H336.3z"></path> <path class="st4" d="M345.6,88.5h4v3.6h0.1c1.1-2.4,3.6-4.2,6.1-4.2c1.3,0,1.9,0.1,2.8,0.3v3.8c-0.8-0.3-1.6-0.4-2.4-0.4 c-3.8,0-6.3,3.7-6.3,9.5v10.6h-4.3V88.5z"></path> <path class="st4" d="M377.2,92.4c-1.6-0.7-3.3-1-4.7-1c-4.8,0-7.5,4.3-7.5,8.7c0,4.2,2.2,8.7,7.8,8.7c1.5,0,3.3-0.5,4.6-1.3 l0.3,3.8c-1.8,0.8-3.8,1-5.4,1c-7,0-11.9-5.5-11.9-12.2c0-7.1,4.7-12.2,11.9-12.2c1.7,0,4,0.4,5.2,0.9L377.2,92.4z"></path> <path class="st4" d="M399.6,110.8c-1.6,0.6-3.5,1.5-7.3,1.5c-8.3,0-12-5-12-12.6c0-6.9,4.3-11.8,10.9-11.8 c7.8,0,10.3,5.7,10.3,13.1h-16.6c0,4.6,3.6,7.8,7.7,7.8c2.8,0,6.1-1.5,7.2-2.3V110.8z M396.8,97.9c0-3.6-2.1-6.5-5.8-6.5 c-4.2,0-5.9,3.5-6.3,6.5H396.8z"></path> </g> </g> </g> </svg> 