<?xml version="1.0" standalone="no"?>
<!DOCTYPE svg PUBLIC "-//W3C//DTD SVG 20010904//EN"
 "http://www.w3.org/TR/2001/REC-SVG-20010904/DTD/svg10.dtd">
<svg version="1.0" xmlns="http://www.w3.org/2000/svg"
 width="1272.000000pt" height="1280.000000pt" viewBox="0 0 1272.000000 1280.000000"
 preserveAspectRatio="xMidYMid meet">
<metadata>
Created by potrace 1.15, written by Peter Selinger 2001-2017
</metadata>
<g transform="translate(0.000000,1280.000000) scale(0.100000,-0.100000)"
fill="#000000" stroke="none">
<path d="M0 12650 l0 -151 65 -262 c37 -144 70 -279 76 -299 l10 -38 405 3
405 2 19 -65 c10 -36 77 -270 149 -520 142 -495 52 -108 1082 -4613 187 -819
339 -1490 337 -1491 -2 -1 -42 -19 -91 -40 -377 -165 -635 -482 -728 -892 -26
-115 -31 -352 -10 -464 50 -270 179 -512 372 -695 183 -175 413 -291 653 -331
113 -18 630 -45 634 -33 2 5 1888 9 4448 9 l4444 0 0 450 0 450 -4678 0
c-4218 0 -4684 2 -4733 16 -212 61 -320 301 -224 497 33 67 107 140 171 168
35 16 231 43 912 124 477 57 1940 233 3252 390 1312 157 3016 362 3788 454
772 93 1405 170 1406 172 2 2 90 1298 195 2879 105 1581 193 2903 197 2938 l6
62 -2876 0 -2875 0 190 321 c104 177 187 324 184 327 -20 20 -221 130 -227
124 -4 -4 -108 -178 -232 -387 l-224 -380 -1938 0 -1938 0 -171 685 c-94 377
-175 697 -178 713 l-7 27 -1135 0 -1135 0 0 -150z m1859 -422 c5 -18 82 -323
171 -678 89 -355 166 -662 171 -682 l10 -38 285 0 284 0 -2 -357 -3 -358 -389
-3 c-215 -1 -393 1 -398 6 -4 4 -51 196 -104 427 -80 350 -299 1159 -460 1698
-5 16 10 17 210 17 l214 0 11 -32z m1991 -1758 l0 -360 -445 0 -445 0 0 360 0
360 445 0 445 0 0 -360z m1078 3 l-3 -358 -447 -3 -448 -2 0 360 0 360 450 0
450 0 -2 -357z m1072 204 l0 -153 -122 -207 -122 -207 -323 0 -323 0 0 360 0
360 445 0 445 0 0 -153z m1078 -204 l-3 -358 -447 -3 -448 -2 0 95 0 96 156
264 156 265 294 0 294 0 -2 -357z m1072 -3 l0 -360 -445 0 -445 0 0 360 0 360
445 0 445 0 0 -360z m1078 3 l-3 -358 -447 -3 -448 -2 0 360 0 360 450 0 450
0 -2 -357z m1072 -3 l0 -360 -443 0 c-244 0 -446 2 -448 4 -2 2 -3 164 -1 360
l2 356 445 0 445 0 0 -360z m1078 3 l-3 -358 -447 -3 -448 -2 0 360 0 360 450
0 450 0 -2 -357z m602 320 c0 -57 -40 -657 -45 -671 -4 -10 -47 -12 -190 -10
-102 2 -185 6 -185 11 0 4 0 165 0 357 l0 350 210 0 210 0 0 -37z m-9202
-1305 l2 -448 -275 0 -274 0 -10 38 c-22 84 -191 832 -191 847 0 14 41 15 373
13 l372 -3 3 -447z m1072 2 l0 -450 -445 0 -445 0 0 450 0 450 445 0 445 0 0
-450z m1078 -2 l2 -448 -450 0 -450 0 0 443 c0 244 3 447 7 450 3 4 205 6 447
5 l441 -3 3 -447z m720 443 c-10 -27 -524 -891 -530 -891 -5 0 -8 203 -8 450
l0 450 271 0 c158 0 269 -4 267 -9z m352 -441 l0 -450 -280 0 c-154 0 -280 2
-280 4 0 5 511 869 522 884 6 6 17 12 24 12 12 0 14 -74 14 -450z m1078 -2 l2
-448 -450 0 -450 0 0 450 0 450 448 -2 447 -3 3 -447z m1072 2 l0 -450 -445 0
-445 0 0 450 0 450 445 0 445 0 0 -450z m1078 -2 l2 -448 -450 0 -450 0 0 450
0 450 448 -2 447 -3 3 -447z m1072 2 l0 -450 -445 0 -445 0 -2 446 c-2 245 -1
448 1 450 2 2 204 4 448 4 l443 0 0 -450z m1078 -2 l2 -448 -450 0 -450 0 0
450 0 450 448 -2 447 -3 3 -447z m546 437 c-1 -5 -14 -207 -30 -447 l-28 -438
-153 0 -153 0 -2 446 c-2 245 -1 448 1 450 10 10 366 -1 365 -11z m-9144
-1510 l0 -445 -155 0 c-85 0 -155 3 -155 8 0 5 -168 745 -195 860 l-5 22 255
0 255 0 0 -445z m1070 0 l0 -445 -445 0 -445 0 0 445 0 445 445 0 445 0 0
-445z m1080 372 c0 -83 27 -30 -270 -535 l-165 -281 -232 -1 -233 0 0 445 0
445 450 0 450 0 0 -73z m1070 -372 l0 -445 -445 0 -445 0 0 259 0 259 110 186
111 186 334 0 335 0 0 -445z m1080 0 l0 -445 -450 0 -450 0 0 445 0 445 450 0
450 0 0 -445z m1070 0 l0 -445 -445 0 -445 0 0 445 0 445 445 0 445 0 0 -445z
m1080 0 l0 -445 -450 0 -450 0 0 445 0 445 450 0 450 0 0 -445z m1070 0 l0
-445 -447 0 -448 0 3 445 2 445 445 0 445 0 0 -445z m1080 0 l0 -445 -450 0
-450 0 0 445 0 445 450 0 450 0 0 -445z m470 423 c0 -43 -51 -823 -56 -845 -4
-22 -8 -23 -122 -23 l-117 0 0 445 0 445 148 0 c146 0 147 0 147 -22z m-6920
-768 l0 -100 -60 0 c-33 0 -60 2 -60 4 0 8 112 196 116 196 2 0 4 -45 4 -100z
m-2150 -730 l0 -450 -30 0 c-22 0 -31 5 -35 23 -43 179 -195 854 -195 864 0
10 30 13 130 13 l130 0 0 -450z m1070 0 l0 -450 -445 0 -445 0 0 450 0 450
445 0 445 0 0 -450z m530 444 c0 -7 -330 -566 -341 -578 -5 -6 -9 114 -9 287
l0 297 175 0 c96 0 175 -2 175 -6z m550 -444 l0 -450 -381 0 c-209 0 -378 3
-376 8 30 54 512 870 520 880 6 8 44 12 123 12 l114 0 0 -450z m1070 0 l0
-450 -445 0 -445 0 0 450 0 450 445 0 445 0 0 -450z m1080 0 l0 -450 -450 0
-450 0 0 450 0 450 450 0 450 0 0 -450z m1070 0 l0 -450 -445 0 -445 0 0 450
0 450 445 0 445 0 0 -450z m1078 -2 l2 -448 -450 0 -450 0 0 450 0 450 448 -2
447 -3 3 -447z m1072 2 l0 -450 -445 0 -445 0 -2 446 c-2 245 -1 448 1 450 2
2 204 4 448 4 l443 0 0 -450z m1078 -2 l2 -448 -450 0 -450 0 0 450 0 450 448
-2 447 -3 3 -447z m402 440 c0 -30 -51 -807 -56 -846 l-5 -43 -80 3 -79 3 0
443 c0 243 0 444 0 447 0 3 50 5 110 5 81 0 110 -3 110 -12z m-9001 -1095 c0
-25 -1 -26 -9 -8 -12 27 -12 35 0 35 6 0 10 -12 9 -27z m898 -95 c-40 -68
-158 -268 -262 -445 l-190 -323 -132 0 -133 0 0 445 0 445 395 0 394 0 -72
-122z m1253 -323 l0 -445 -450 0 -450 0 0 420 c0 370 2 424 16 445 l16 25 434
0 434 0 0 -445z m1070 0 l0 -445 -445 0 -445 0 0 445 0 445 445 0 445 0 0
-445z m1080 0 l0 -445 -450 0 -450 0 0 445 0 445 450 0 450 0 0 -445z m1070 0
l0 -445 -445 0 -445 0 0 445 0 445 445 0 445 0 0 -445z m1080 0 l0 -445 -450
0 -450 0 0 445 0 445 450 0 450 0 0 -445z m1070 0 l0 -445 -445 0 -445 0 -2
445 -3 445 448 0 447 0 0 -445z m1080 60 c0 -300 -3 -387 -12 -390 -14 -4
-854 -105 -875 -105 -10 0 -13 95 -13 440 l0 440 450 0 450 0 0 -385z m330
378 c-1 -60 -51 -727 -54 -731 -3 -3 -27 -7 -53 -9 l-48 -5 0 376 0 376 78 0
c42 0 77 -3 77 -7z m-7860 -623 l0 -260 -156 0 c-86 0 -154 4 -152 8 8 19 301
512 304 512 2 0 4 -117 4 -260z m-740 -446 c0 -10 -65 -124 -71 -124 -4 0 -9
15 -12 33 -3 17 -9 47 -13 65 l-6 32 51 0 c28 0 51 -3 51 -6z m740 -299 c0
-237 -3 -305 -12 -305 -7 0 -159 -18 -337 -40 -179 -22 -327 -37 -329 -35 -7
7 -42 138 -42 159 0 14 202 369 286 504 14 22 18 22 224 22 l210 0 0 -305z
m1080 65 c0 -132 -3 -240 -7 -240 -17 0 -851 -101 -870 -105 l-23 -5 0 295 0
295 450 0 450 0 0 -240z m1070 66 l0 -174 -37 -6 c-21 -3 -211 -26 -423 -51
-212 -25 -395 -47 -407 -49 l-23 -3 0 228 0 229 445 0 445 0 0 -174z m1080 65
l0 -109 -37 -6 c-21 -3 -209 -26 -418 -51 -209 -25 -395 -47 -412 -50 l-33 -6
0 166 0 165 450 0 450 0 0 -109z m1070 64 c0 -38 -3 -45 -22 -49 -13 -3 -198
-26 -413 -51 -214 -25 -405 -48 -422 -51 l-33 -5 0 101 0 100 445 0 445 0 0
-45z m715 39 c-20 -4 -520 -64 -530 -64 -3 0 -5 16 -5 35 l0 35 278 -1 c152
-1 268 -3 257 -5z"/>
<path d="M3985 2139 c-91 -12 -233 -52 -315 -90 -226 -105 -436 -317 -527
-534 -79 -186 -88 -228 -87 -440 0 -155 3 -191 22 -262 137 -503 585 -835
1092 -810 535 26 975 445 1018 970 21 257 -36 487 -174 694 -224 339 -624 522
-1029 472z m247 -540 c201 -41 370 -212 414 -418 17 -84 17 -129 -1 -216 -51
-243 -272 -425 -516 -425 -155 0 -281 52 -388 159 -105 105 -153 222 -154 371
-1 149 54 281 159 385 126 125 311 180 486 144z"/>
<path d="M4033 1327 c-65 -24 -119 -73 -149 -133 -89 -182 35 -384 235 -384
156 0 266 111 266 265 0 59 -5 79 -30 124 -35 63 -82 105 -144 126 -52 18
-132 18 -178 2z"/>
<path d="M10435 2139 c-433 -54 -794 -374 -907 -802 -30 -116 -37 -342 -14
-458 88 -434 411 -765 836 -856 116 -25 324 -25 440 0 492 105 850 541 851
1037 0 60 -3 130 -6 157 -81 583 -617 995 -1200 922z m247 -540 c269 -56 459
-326 419 -595 -27 -185 -131 -329 -295 -409 -330 -162 -715 43 -766 408 -38
265 142 529 402 593 67 16 172 17 240 3z"/>
<path d="M10477 1325 c-182 -67 -232 -321 -88 -447 54 -48 108 -68 181 -68 73
0 127 20 181 68 87 76 111 217 54 320 -64 118 -204 172 -328 127z"/>
</g>
</svg>
